{"title":"We.Own.The.Night.2007.SWESUB.DVDRip.XviD-Zen_Bud","uid":5838166,"size":1463072768,"categoryP":"video","categoryS":"movies","magnet":"?xt=urn:btih:5f068840ba91fd39d6ef4a7204dddb222f58eb76&amp;dn=We.Own.The.Night.2007.SWESUB.DVDRip.XviD-Zen_Bud&amp;tr=udp%3A%2F%2Ftracker.openbittorrent.com%3A80&amp;tr=udp%3A%2F%2Fopen.demonii.com%3A1337&amp;tr=udp%3A%2F%2Ftracker.coppersurfer.tk%3A6969&amp;tr=udp%3A%2F%2Fexodus.desync.com%3A6969","seeders":0,"leechers":0,"uploader":"Zen_Bud","files":-1,"time":1284768869,"description":"\n***** We.Own.The.Night.2007.SWESUB.DVDRip.XviD-Zen_Bud.avi *****\n\nFormat                           : AVI\nFile size                        : 1.36 GiB\nDuration                         : 1h 56mn\nOverall bit rate                 : 1 679 Kbps\n\n\nVideo\n\nFormat                           : MPEG-4 Visual\nCodec ID/Hint                    : XviD\nDuration                         : 1h 56mn\nBit rate                         : 1 541 Kbps\nWidth                            : 720 pixels\nHeight                           : 460 pixels\nDisplay aspect ratio             : 1.565\nStream size                      : 1.25 GiB (92%)\nWriting library                  : XviD 1.2.1 (UTC 2008-12-04)\n\nAudio\n\nFormat                           : MPEG Audio\nCodec ID/Hint                    : MP3\nDuration                         : 1h 56mn\nBit rate                         : 128 Kbps\nChannel(s)                       : 2 channels\nSampling rate                    : 48.0 KHz\nStream size                      : 106 MiB (8%)\n\n\n\n","torrent":{"xt":"urn:btih:5f068840ba91fd39d6ef4a7204dddb222f58eb76","amp;dn":"We.Own.The.Night.2007.SWESUB.DVDRip.XviD-Zen_Bud","amp;tr":["udp%3A%2F%2Ftracker.openbittorrent.com%3A80","udp%3A%2F%2Fopen.demonii.com%3A1337","udp%3A%2F%2Ftracker.coppersurfer.tk%3A6969","udp%3A%2F%2Fexodus.desync.com%3A6969"],"infoHash":"5f068840ba91fd39d6ef4a7204dddb222f58eb76","infoHashBuffer":{"type":"Buffer","data":[95,6,136,64,186,145,253,57,214,239,74,114,4,221,219,34,47,88,235,118]},"announce":[],"urlList":[]}}